# xmcd
#
# Track frame offsets:
#	150
#	23201
#	45757
#	59965
#	83829
#	99167
#	134252
#	162734
#	177955
#	200176
#
# Disc length: 2832 seconds
#
# Revision: 1
# Processed by: cddbd v1.5.1PL0 Copyright (c) Steve Scherf et al.
# Submitted via: audiograbber 1.83.01
#
DISCID=880b0e0a
DTITLE=Hayes Carll - Creekside Music Series - June 5 2005
DYEAR=2005
DGENRE=
TTITLE0=Lost And Lonely
TTITLE1=It's A Shame
TTITLE2=The Grizzly Bare
TTITLE3=Richey Lee
TTITLE4=Good Friends
TTITLE5=Easy Come And Easy Go
TTITLE6=Hey Baby Where You Been
TTITLE7=Long Way Home
TTITLE8=Midnight Rider
TTITLE9=I've Been Everywhere
EXTD=
EXTT0=
EXTT1=
EXTT2=
EXTT3=
EXTT4=
EXTT5=
EXTT6=
EXTT7=
EXTT8=
EXTT9=
PLAYORDER=
